<?xml version="1.0" encoding="utf-8"?>
<!DOCTYPE svg PUBLIC "-//W3C//DTD SVG 1.1//EN" "http://www.w3.org/Graphics/SVG/1.1/DTD/svg11.dtd">
<svg xmlns="http://www.w3.org/2000/svg" xmlns:xlink="http://www.w3.org/1999/xlink" version="1.1" viewBox="0 0 512 512" enable-background="new 0 0 512 512" width="512px" height="512px">
  <g>
    <g>
      <path d="m495,396.1c-8-8-20.9-8-28.9,0l-20.6,20.6-25.5-25.5 68.3-68.3c8-8 8-20.9 0-28.9-8-8-20.9-8-28.9,0l-16.4,16.4-168.9-169.1c-36.6-36.6-96.1-36.6-132.7,0-17.7,17.7-27.5,41.3-27.5,66.4 0,20.2 6.4,39.4 18.2,55.4l53.4-53.4c8-8 20.9-8 28.9,0 8,8 8,20.9 0,28.9l-54.3,54.3 29.9,29.9 54.3-54.3c8-8 20.9-8 28.9,0 8,8 8,20.9 0,28.9l-54.3,54.3 29.9,29.9 54.3-54.3c8-8 20.9-8 28.9,0 8,8 8,20.9 0,28.9l-54.3,54.3 32.8,32.8-16.4,16.4c-8,8-8,20.9 0,28.9 10.8,10.8 24.3,5 28.9,0l68.3-68.3 25.5,25.5-20.6,20.6c-8,8-8,20.9 0,28.9 11.1,11.1 24.3,4.6 28.9,0l70-70c7.9-8.3 7.9-21.2-0.1-29.2z" fill="#933EC5"/>
      <path d="m115.4,300.1c-7.7-6.7-19.1-6.6-26.7,0-12.6,10.9-75.1,67.4-75.1,112 0,48.8 39.7,88.5 88.5,88.5 48.8,0 88.5-39.7 88.5-88.5-0.1-44.7-62.7-101.2-75.2-112z" fill="#933EC5"/>
      <path d="m99.2,128.1c4-5.5 8.3-10.7 13.2-15.6 4.9-4.9 10.2-9.2 15.6-13.2l-82.1-82.3c-8-8-20.9-8-28.9,0-8,8-8,20.9 0,28.9l82.2,82.2z" fill="#933EC5"/>
    </g>
  </g>
</svg>
