<?xml version="1.0" encoding="iso-8859-1"?>
<!-- Generator: Adobe Illustrator 16.0.0, SVG Export Plug-In . SVG Version: 6.00 Build 0)  -->
<!DOCTYPE svg PUBLIC "-//W3C//DTD SVG 1.1//EN" "http://www.w3.org/Graphics/SVG/1.1/DTD/svg11.dtd">
<svg xmlns="http://www.w3.org/2000/svg" xmlns:xlink="http://www.w3.org/1999/xlink" version="1.1" id="Capa_1" x="0px" y="0px" width="512px" height="512px" viewBox="0 0 31.55 31.55" style="enable-background:new 0 0 31.55 31.55;" xml:space="preserve">
<g>
	<g>
		<path d="M4.599,18.263c0-0.92,0.236-2.006,0.634-3.182C4.145,16.572,0,22.419,0,25.054c0,3.035,2.459,5.494,5.494,5.494    c1.993,0,3.739-1.062,4.702-2.652C6.854,25.982,4.599,22.38,4.599,18.263z" fill="#D80027"/>
		<path d="M26.057,14.729c0,0-0.006,0.008-0.017,0.024c0.467,1.303,0.749,2.504,0.749,3.51c0,4.067-2.203,7.631-5.477,9.562    c0.952,1.629,2.721,2.724,4.743,2.724c3.034,0,5.494-2.459,5.494-5.492C31.551,22.021,26.057,14.729,26.057,14.729z" fill="#D80027"/>
		<path d="M24.877,18.263c0-5.072-9.182-17.262-9.182-17.262s-9.184,12.19-9.184,17.262c0,5.069,4.111,9.182,9.183,9.182    S24.877,23.333,24.877,18.263z M12.469,23.459c-0.253,0.298-0.613,0.452-0.976,0.452c-0.29,0-0.582-0.098-0.82-0.3    c-3.621-3.048-2.372-7.552-2.317-7.742c0.195-0.677,0.9-1.066,1.579-0.872c0.675,0.196,1.064,0.899,0.872,1.574    c-0.039,0.145-0.821,3.13,1.508,5.09C12.854,22.117,12.923,22.919,12.469,23.459z" fill="#D80027"/>
	</g>
</g>
<g>
</g>
<g>
</g>
<g>
</g>
<g>
</g>
<g>
</g>
<g>
</g>
<g>
</g>
<g>
</g>
<g>
</g>
<g>
</g>
<g>
</g>
<g>
</g>
<g>
</g>
<g>
</g>
<g>
</g>
</svg>
