<?xml version="1.0" encoding="iso-8859-1"?>
<!-- Generator: Adobe Illustrator 18.0.0, SVG Export Plug-In . SVG Version: 6.00 Build 0)  -->
<!DOCTYPE svg PUBLIC "-//W3C//DTD SVG 1.1//EN" "http://www.w3.org/Graphics/SVG/1.1/DTD/svg11.dtd">
<svg version="1.1" id="Capa_1" xmlns="http://www.w3.org/2000/svg" xmlns:xlink="http://www.w3.org/1999/xlink" x="0px" y="0px"
	 viewBox="0 0 377.161 377.161" style="enable-background:new 0 0 377.161 377.161;" xml:space="preserve">
<path d="M309.592,178.351l-15.088-15.088l68.012-68.012c19.527-19.526,19.527-51.184,0-70.711l-9.895-9.896
	c-19.527-19.526-51.185-19.526-70.711,0l-68.012,68.013L198.811,67.57c-16.271-16.271-42.654-16.271-58.926,0l-10.605,10.606
	c-16.271,16.271-16.271,42.653,0,58.925l7.811,7.811L18.602,263.401C2.422,279.58,0.002,303.252,0,315.922
	c-0.002,7.497,1.049,33.014,14.639,46.602c13.588,13.589,39.104,14.64,46.602,14.638c12.67-0.002,36.342-2.421,52.52-18.601
	l118.49-118.488l7.811,7.811c16.271,16.271,42.652,16.271,58.924,0l10.607-10.607C325.863,221.005,325.863,194.623,309.592,178.351z
	 M82.24,327.041c-6.635,6.634-27.473,6.522-35.707,3.588c-2.934-8.235-3.047-29.073,3.588-35.708l118.488-118.488l32.119,32.119
	L82.24,327.041z"/>
<g>
</g>
<g>
</g>
<g>
</g>
<g>
</g>
<g>
</g>
<g>
</g>
<g>
</g>
<g>
</g>
<g>
</g>
<g>
</g>
<g>
</g>
<g>
</g>
<g>
</g>
<g>
</g>
<g>
</g>
</svg>
